<?xml version="1.0" encoding="utf-8"?>
<!-- Generator: Adobe Illustrator 16.0.0, SVG Export Plug-In . SVG Version: 6.00 Build 0)  -->
<!DOCTYPE svg PUBLIC "-//W3C//DTD SVG 1.1//EN" "http://www.w3.org/Graphics/SVG/1.1/DTD/svg11.dtd">
<svg version="1.1" id="Layer_1" xmlns="http://www.w3.org/2000/svg" xmlns:xlink="http://www.w3.org/1999/xlink" x="0px" y="0px"
	 width="24px" height="24px" viewBox="0 0 24 24" enable-background="new 0 0 24 24" xml:space="preserve">
    <polygon fill="none" stroke="#FFFFFF" stroke-width="2" stroke-miterlimit="10" points="18.875,2.832 16.584,2.832 16.584,1 1,1 
		1,21.166 7.417,21.166 7.417,23 23,23 23,6.957 	"/>
    <rect x="1" y="1" fill="#06846F" width="15.584" height="20.166"/>
    <polygon fill="#00D1B2" points="23,6.957 23,23 7.417,23 7.417,2.833 18.875,2.832 	"/>
    <polygon fill="#06846F" points="23,6.957 18.875,6.957 18.875,2.832 	"/>
    <path fill="#FFFFFF" d="M14.898,18.499v-1.396c-0.982-0.044-1.938-0.307-2.495-0.63l0.441-1.717
		c0.616,0.337,1.481,0.646,2.435,0.646c0.836,0,1.41-0.323,1.41-0.911c0-0.557-0.471-0.91-1.557-1.277
		c-1.57-0.527-2.641-1.261-2.641-2.684c0-1.291,0.91-2.304,2.48-2.613V6.525h1.438v1.291c0.981,0.044,1.643,0.249,2.127,0.483
		l-0.425,1.659c-0.383-0.162-1.056-0.499-2.114-0.499c-0.955,0-1.262,0.41-1.262,0.821c0,0.484,0.515,0.792,1.76,1.263
		c1.746,0.615,2.452,1.424,2.452,2.744c0,1.306-0.925,2.42-2.614,2.713v1.498L14.898,18.499L14.898,18.499z"/>
</svg>