<?xml version="1.0" encoding="utf-8"?>
<!-- Generator: Adobe Illustrator 16.0.0, SVG Export Plug-In . SVG Version: 6.00 Build 0)  -->
<!DOCTYPE svg PUBLIC "-//W3C//DTD SVG 1.1//EN" "http://www.w3.org/Graphics/SVG/1.1/DTD/svg11.dtd">
<svg version="1.1" id="Layer_1" xmlns="http://www.w3.org/2000/svg" xmlns:xlink="http://www.w3.org/1999/xlink" x="0px" y="0px"
	 width="24px" height="24px" viewBox="0 0 24 24" enable-background="new 0 0 24 24" xml:space="preserve">
    <rect fill="#06846F" width="17" height="22"/>
    <polygon fill="#FFFFFF" points="24,6.499 24,24 7,24 7,2 19.5,1.999 "/>
    <polygon fill="#06846F" points="24,6.499 19.5,6.499 19.5,1.999 "/>
    <path fill="#00D1B2" d="M15.162,19.089v-1.521c-1.072-0.048-2.113-0.336-2.721-0.688l0.48-1.873
		c0.673,0.368,1.616,0.705,2.657,0.705c0.912,0,1.537-0.353,1.537-0.993c0-0.608-0.513-0.992-1.697-1.393
		c-1.713-0.576-2.881-1.376-2.881-2.929c0-1.408,0.992-2.513,2.705-2.85V6.027h1.568v1.409c1.072,0.048,1.793,0.271,2.321,0.527
		l-0.464,1.81c-0.416-0.177-1.152-0.545-2.306-0.545c-1.04,0-1.376,0.448-1.376,0.896c0,0.528,0.561,0.864,1.92,1.377
		c1.905,0.672,2.674,1.553,2.674,2.993c0,1.425-1.009,2.641-2.85,2.961v1.633H15.162z"/>
</svg>